{
  "accessors": [
    {
      "bufferView": 2,
      "componentType": 5126,
      "count": 10658,
      "max": [
        67.49121856689453,
        151.08334350585938,
        9.81643295288086
      ],
      "min": [
        -7.491216659545898,
        136.8090362548828,
        0.6628128886222839
      ],
      "type": "VEC3"
    },
    {
      "bufferView": 2,
      "byteOffset": 127896,
      "componentType": 5126,
      "count": 10658,
      "max": [
        0.9987348318099976,
        0.9999749064445496,
        1.0
      ],
      "min": [
        -0.9987350106239319,
        -0.9999954104423523,
        -0.999901533126831
      ],
      "type": "VEC3"
    },
    {
      "bufferView": 1,
      "componentType": 5126,
      "count": 10658,
      "max": [
        0.9888167381286621,
        0.9925670027732849
      ],
      "min": [
        0.00803956389427185,
        0.010844901204109192
      ],
      "type": "VEC2"
    },
    {
      "bufferView": 1,
      "byteOffset": 85264,
      "componentType": 5126,
      "count": 10658,
      "max": [
        0.21045193076133728,
        0.7105922698974609
      ],
      "min": [
        0.20272842049598694,
        0.7026021480560303
      ],
      "type": "VEC2"
    },
    {
      "bufferView": 0,
      "componentType": 5125,
      "count": 47670,
      "type": "SCALAR"
    },
    {
      "bufferView": 2,
      "byteOffset": 255792,
      "componentType": 5126,
      "count": 8760,
      "max": [
        62.62239074707031,
        158.97312927246094,
        12.62785816192627
      ],
      "min": [
        -62.62239074707031,
        24.354591369628906,
        -49.90781021118164
      ],
      "type": "VEC3"
    },
    {
      "bufferView": 2,
      "byteOffset": 360912,
      "componentType": 5126,
      "count": 8760,
      "max": [
        0.9998510479927063,
        0.9996942281723022,
        0.9999797940254211
      ],
      "min": [
        -0.9999290108680725,
        -0.9995495080947876,
        -0.9998811483383179
      ],
      "type": "VEC3"
    },
    {
      "bufferView": 1,
      "byteOffset": 170528,
      "componentType": 5126,
      "count": 8760,
      "max": [
        0.9966298341751099,
        0.9973927736282349
      ],
      "min": [
        0.003292292356491089,
        0.004347536712884903
      ],
      "type": "VEC2"
    },
    {
      "bufferView": 1,
      "byteOffset": 240608,
      "componentType": 5126,
      "count": 8760,
      "max": [
        0.23146721720695496,
        0.714749276638031
      ],
      "min": [
        0.2005872130393982,
        0.6545290350914001
      ],
      "type": "VEC2"
    },
    {
      "bufferView": 0,
      "byteOffset": 190680,
      "componentType": 5125,
      "count": 35364,
      "type": "SCALAR"
    },
    {
      "bufferView": 2,
      "byteOffset": 466032,
      "componentType": 5126,
      "count": 27889,
      "max": [
        44.760780334472656,
        163.4176788330078,
        19.056970596313477
      ],
      "min": [
        -44.760780334472656,
        -0.004607677459716797,
        -31.525550842285156
      ],
      "type": "VEC3"
    },
    {
      "bufferView": 2,
      "byteOffset": 800700,
      "componentType": 5126,
      "count": 27889,
      "max": [
        1.0,
        1.0,
        0.9999874830245972
      ],
      "min": [
        -1.0,
        -1.0,
        -1.0
      ],
      "type": "VEC3"
    },
    {
      "bufferView": 1,
      "byteOffset": 310688,
      "componentType": 5126,
      "count": 27889,
      "max": [
        0.9991351962089539,
        0.9997636675834656
      ],
      "min": [
        0.0016752270748838782,
        0.002538371831178665
      ],
      "type": "VEC2"
    },
    {
      "bufferView": 1,
      "byteOffset": 533800,
      "componentType": 5126,
      "count": 27889,
      "max": [
        0.32539719343185425,
        0.7862943410873413
      ],
      "min": [
        0.07761207967996597,
        0.5840151309967041
      ],
      "type": "VEC2"
    },
    {
      "bufferView": 0,
      "byteOffset": 332136,
      "componentType": 5125,
      "count": 127731,
      "type": "SCALAR"
    }
  ],
  "asset": {
    "extras": {
      "author": "chunyou_ (https://sketchfab.com/chunyou_)",
      "license": "CC-BY-NC-4.0 (http://creativecommons.org/licenses/by-nc/4.0/)",
      "source": "https://sketchfab.com/3d-models/miku-with-you-2021-fanart-by-chunyou-34ef9b7e5a2344e7a6024d02e2acfd80",
      "title": "Miku with You 2021 fanart by chunyou_"
    },
    "generator": "Sketchfab-12.56.0",
    "version": "2.0"
  },
  "bufferViews": [
    {
      "buffer": 0,
      "byteLength": 843060,
      "name": "floatBufferViews",
      "target": 34963
    },
    {
      "buffer": 0,
      "byteLength": 756912,
      "byteOffset": 843060,
      "byteStride": 8,
      "name": "floatBufferViews",
      "target": 34962
    },
    {
      "buffer": 0,
      "byteLength": 1135368,
      "byteOffset": 1599972,
      "byteStride": 12,
      "name": "floatBufferViews",
      "target": 34962
    }
  ],
  "buffers": [
    {
      "byteLength": 2735340,
      "uri": "scene.bin"
    }
  ],
  "extensionsRequired": [
    "KHR_materials_pbrSpecularGlossiness"
  ],
  "extensionsUsed": [
    "KHR_materials_pbrSpecularGlossiness"
  ],
  "images": [
    {
      "uri": "textures/face_m_diffuse.png"
    },
    {
      "uri": "textures/hair1_diffuse.png"
    },
    {
      "uri": "textures/body1_diffuse.png"
    },
    {
      "uri": "textures/body1_specularGlossiness.png"
    },
    {
      "uri": "textures/body1_emissive.png"
    }
  ],
  "materials": [
    {
      "doubleSided": true,
      "extensions": {
        "KHR_materials_pbrSpecularGlossiness": {
          "diffuseFactor": [
            1.0,
            1.0,
            1.0,
            1.0
          ],
          "diffuseTexture": {
            "index": 0
          },
          "glossinessFactor": 0.0,
          "specularFactor": [
            0.4820437286053907,
            0.4820437286053907,
            0.4820437286053907
          ],
          "specularGlossinessTexture": {
            "index": 0
          }
        }
      },
      "name": "face_m"
    },
    {
      "doubleSided": true,
      "extensions": {
        "KHR_materials_pbrSpecularGlossiness": {
          "diffuseFactor": [
            1.0,
            1.0,
            1.0,
            1.0
          ],
          "diffuseTexture": {
            "index": 1
          },
          "glossinessFactor": 0.5,
          "specularFactor": [
            0.06251178033550396,
            0.06251178033550396,
            0.06251178033550396
          ],
          "specularGlossinessTexture": {
            "index": 1
          }
        }
      },
      "name": "hair1"
    },
    {
      "alphaMode": "BLEND",
      "doubleSided": true,
      "emissiveFactor": [
        1.0,
        1.0,
        1.0
      ],
      "emissiveTexture": {
        "index": 4
      },
      "extensions": {
        "KHR_materials_pbrSpecularGlossiness": {
          "diffuseFactor": [
            1.0,
            1.0,
            1.0,
            1.0
          ],
          "diffuseTexture": {
            "index": 2
          },
          "glossinessFactor": 0.5179562713946093,
          "specularFactor": [
            0.0,
            0.0,
            0.0
          ],
          "specularGlossinessTexture": {
            "index": 3,
            "texCoord": 1
          }
        }
      },
      "name": "body1"
    }
  ],
  "meshes": [
    {
      "name": "face_face_m_0",
      "primitives": [
        {
          "attributes": {
            "NORMAL": 1,
            "POSITION": 0,
            "TEXCOORD_0": 2,
            "TEXCOORD_1": 3
          },
          "indices": 4,
          "material": 0,
          "mode": 4
        }
      ]
    },
    {
      "name": "hair_hair1_0",
      "primitives": [
        {
          "attributes": {
            "NORMAL": 6,
            "POSITION": 5,
            "TEXCOORD_0": 7,
            "TEXCOORD_1": 8
          },
          "indices": 9,
          "material": 1,
          "mode": 4
        }
      ]
    },
    {
      "name": "body_body1_0",
      "primitives": [
        {
          "attributes": {
            "NORMAL": 11,
            "POSITION": 10,
            "TEXCOORD_0": 12,
            "TEXCOORD_1": 13
          },
          "indices": 14,
          "material": 2,
          "mode": 4
        }
      ]
    }
  ],
  "nodes": [
    {
      "children": [
        1
      ],
      "matrix": [
        1.0,
        0.0,
        0.0,
        0.0,
        0.0,
        2.220446049250313e-16,
        -1.0,
        0.0,
        0.0,
        1.0,
        2.220446049250313e-16,
        0.0,
        0.0,
        0.0,
        0.0,
        1.0
      ],
      "name": "Sketchfab_model"
    },
    {
      "children": [
        2
      ],
      "matrix": [
        0.009999999776482582,
        0.0,
        0.0,
        0.0,
        0.0,
        0.0,
        0.009999999776482582,
        0.0,
        0.0,
        -0.009999999776482582,
        0.0,
        0.0,
        0.0,
        0.0,
        0.0,
        1.0
      ],
      "name": "e777bfc094c548df88906f7352852007.fbx"
    },
    {
      "children": [
        3,
        5,
        7
      ],
      "name": "RootNode"
    },
    {
      "children": [
        4
      ],
      "name": "face"
    },
    {
      "mesh": 0,
      "name": "face_face_m_0"
    },
    {
      "children": [
        6
      ],
      "name": "hair"
    },
    {
      "mesh": 1,
      "name": "hair_hair1_0"
    },
    {
      "children": [
        8
      ],
      "name": "body"
    },
    {
      "mesh": 2,
      "name": "body_body1_0"
    }
  ],
  "samplers": [
    {
      "magFilter": 9729,
      "minFilter": 9987,
      "wrapS": 10497,
      "wrapT": 10497
    }
  ],
  "scene": 0,
  "scenes": [
    {
      "name": "Sketchfab_Scene",
      "nodes": [
        0
      ]
    }
  ],
  "textures": [
    {
      "sampler": 0,
      "source": 0
    },
    {
      "sampler": 0,
      "source": 1
    },
    {
      "sampler": 0,
      "source": 2
    },
    {
      "sampler": 0,
      "source": 3
    },
    {
      "sampler": 0,
      "source": 4
    }
  ]
}
